<?xml version="1.0" standalone="no"?>
<!DOCTYPE svg PUBLIC "-//W3C//DTD SVG 20010904//EN"
 "http://www.w3.org/TR/2001/REC-SVG-20010904/DTD/svg10.dtd">
<svg version="1.0" xmlns="http://www.w3.org/2000/svg"
 width="48.000000pt" height="48.000000pt" viewBox="0 0 48.000000 48.000000"
 preserveAspectRatio="xMidYMid meet">

<g transform="translate(0.000000,48.000000) scale(0.100000,-0.100000)"
fill="#000000" stroke="none">
<path d="M31 372 c-37 -11 -36 -30 0 -39 42 -11 45 -23 14 -57 -14 -15 -25
-31 -25 -36 0 -13 42 -40 62 -40 21 0 22 -8 8 -46 -8 -21 -8 -31 4 -42 20 -20
34 -8 46 38 14 52 38 53 42 3 2 -28 8 -39 22 -41 10 -2 23 2 27 10 8 11 10 11
18 0 4 -8 17 -12 27 -10 14 2 20 13 22 41 4 50 28 49 42 -3 12 -46 26 -58 46
-38 12 11 12 21 4 42 -14 38 -13 46 8 46 20 0 62 27 62 40 0 5 -11 21 -25 36
-31 34 -28 46 14 57 68 17 3 52 -82 43 -26 -3 -52 -8 -58 -11 -16 -11 10 -35
37 -35 25 0 30 -15 15 -39 -8 -12 -15 -11 -50 3 -52 20 -90 20 -142 0 -35 -14
-42 -15 -50 -3 -15 24 -10 39 15 39 27 0 53 24 36 35 -17 10 -112 15 -139 7z
m114 -22 c-3 -5 -30 -10 -60 -10 -30 0 -57 5 -60 10 -4 6 18 10 60 10 42 0 64
-4 60 -10z m300 0 c-3 -5 -28 -10 -55 -10 -27 0 -52 5 -55 10 -4 6 17 10 55
10 38 0 59 -4 55 -10z m-161 -64 c18 -7 61 -17 95 -21 50 -6 61 -10 59 -24 -8
-41 -379 -45 -395 -5 -8 21 -2 24 62 30 32 4 72 12 89 20 40 17 49 17 90 0z
m-164 -131 c-16 -47 -23 -40 -9 9 6 21 13 36 16 33 3 -3 0 -22 -7 -42z m249 1
c6 -22 6 -35 1 -30 -10 10 -27 83 -17 74 2 -3 10 -23 16 -44z m-162 -13 c-3
-10 -5 -4 -5 12 0 17 2 24 5 18 2 -7 2 -21 0 -30z m70 0 c-3 -10 -5 -4 -5 12
0 17 2 24 5 18 2 -7 2 -21 0 -30z"/>
<path d="M230 245 c0 -14 5 -25 10 -25 6 0 10 11 10 25 0 14 -4 25 -10 25 -5
0 -10 -11 -10 -25z"/>
<path d="M200 245 c0 -8 5 -15 10 -15 6 0 10 7 10 15 0 8 -4 15 -10 15 -5 0
-10 -7 -10 -15z"/>
<path d="M260 245 c0 -8 5 -15 10 -15 6 0 10 7 10 15 0 8 -4 15 -10 15 -5 0
-10 -7 -10 -15z"/>
<path d="M73 243 c9 -2 25 -2 35 0 9 3 1 5 -18 5 -19 0 -27 -2 -17 -5z"/>
<path d="M360 246 c0 -8 51 -13 56 -5 3 5 -9 9 -25 9 -17 0 -31 -2 -31 -4z"/>
</g>
</svg>
